<?xml version="1.0" standalone="no"?>
<!DOCTYPE svg PUBLIC "-//W3C//DTD SVG 20010904//EN"
 "http://www.w3.org/TR/2001/REC-SVG-20010904/DTD/svg10.dtd">
<svg version="1.0" xmlns="http://www.w3.org/2000/svg"
 width="3000.000000pt" height="2000.000000pt" viewBox="0 0 3000.000000 2000.000000"
 preserveAspectRatio="xMidYMid meet">

<g transform="translate(0.000000,2000.000000) scale(0.100000,-0.100000)"
fill="#000000" stroke="none">
<path d="M0 10000 l0 -10000 15000 0 15000 0 0 10000 0 10000 -15000 0 -15000
0 0 -10000z m15781 8360 c31 -17 23 -59 -32 -171 -138 -278 -309 -633 -309
-639 0 -4 100 -5 223 -3 131 3 228 0 236 -5 7 -5 14 -21 14 -34 0 -13 -101
-285 -223 -604 -122 -318 -253 -660 -290 -759 -80 -213 -292 -764 -314 -816
-22 -53 -65 -66 -90 -26 -16 24 -16 24 104 1200 22 218 40 408 40 422 l0 25
-264 0 c-146 0 -276 4 -289 9 -13 5 -27 19 -30 31 -3 13 21 92 63 203 323 860
392 1043 400 1051 7 7 648 116 733 125 5 1 17 -4 28 -9z m-5583 -487 c18 -16
222 -285 571 -753 52 -69 107 -142 122 -162 36 -46 38 -84 4 -100 -26 -12
-103 11 -385 112 -63 23 -273 97 -466 165 -194 68 -361 128 -372 134 -24 13
-37 45 -25 65 4 8 42 52 84 97 42 46 149 165 239 264 144 160 177 192 201 194
4 1 16 -7 27 -16z m9217 -407 c125 -33 297 -116 402 -195 253 -191 409 -473
443 -806 17 -157 -2 -245 -50 -245 -39 0 -47 29 -53 180 -6 161 -28 259 -91
395 -132 285 -389 496 -701 576 -72 18 -118 23 -230 23 -147 1 -207 -9 -337
-51 -47 -15 -87 -23 -102 -19 -29 7 -41 37 -27 64 17 33 142 75 311 106 14 2
95 3 180 1 128 -2 173 -7 255 -29z m-240 -206 c283 -32 502 -154 664 -370 99
-132 147 -247 176 -420 19 -111 16 -260 -6 -286 -14 -17 -63 -18 -77 -1 -5 6
-12 77 -15 157 -4 123 -9 157 -31 225 -47 139 -102 229 -201 331 -240 247
-563 325 -883 212 -63 -22 -87 -26 -101 -18 -25 13 -35 44 -22 69 20 36 184
85 356 105 17 1 35 4 40 4 6 1 51 -3 100 -8z m-4971 -256 c21 -20 20 -43 -1
-66 -15 -17 -73 -18 -1428 -18 l-1413 0 -12 30 c-11 26 -10 33 5 50 18 20 37
20 1426 20 1266 0 1409 -2 1423 -16z m3682 -9 c15 -23 15 -27 0 -50 l-16 -25
-937 0 c-857 0 -938 1 -955 17 -22 20 -23 46 -2 67 14 14 114 16 954 16 l940
0 16 -25z m1375 0 c99 -25 217 -87 285 -149 34 -30 65 -52 69 -48 5 4 5 2 2
-4 -3 -6 12 -35 35 -65 44 -59 76 -124 104 -215 14 -44 19 -91 19 -189 0 -147
-9 -175 -54 -175 -46 0 -55 20 -47 106 31 371 -264 675 -632 651 -80 -5 -191
-35 -216 -58 -16 -14 -53 -10 -70 7 -39 38 -9 80 80 114 134 51 289 60 425 25z
m-8359 -232 c21 -19 24 -56 6 -71 -17 -14 -86 -50 -471 -246 -253 -129 -334
-166 -353 -162 -18 5 -33 25 -60 84 -119 253 -119 252 -81 275 12 8 96 24 187
36 91 12 246 33 345 47 144 19 340 45 399 53 5 0 18 -6 28 -16z m8269 -23
c137 -26 262 -127 312 -254 57 -141 45 -296 -23 -296 -38 0 -48 25 -48 115 1
75 -3 92 -30 148 -80 161 -253 230 -422 167 -58 -22 -61 -22 -80 -5 -25 22
-26 57 -2 78 9 8 42 23 72 32 30 9 60 18 65 20 22 7 105 4 156 -5z m-6151 -80
l-1845 -5 -45 -21 c-54 -26 -104 -74 -133 -128 l-22 -41 0 -935 0 -935 30 -55
c33 -60 96 -114 153 -130 25 -7 997 -10 3025 -10 1984 0 2987 -3 2987 -10 0
-15 -5936 -14 -5998 2 -86 21 -155 78 -191 158 -20 44 -21 61 -21 970 0 1046
-5 981 80 1068 85 88 -102 81 1980 79 l1845 -2 -1845 -5z m4908 3 c-395 -2
-1041 -2 -1435 0 -395 1 -72 2 717 2 789 0 1112 -1 718 -2z m-5198 -391 c81
-28 128 -55 189 -106 74 -61 116 -116 161 -211 66 -139 75 -192 75 -425 0
-238 -10 -290 -81 -436 -75 -154 -197 -259 -359 -310 -76 -24 -95 -26 -212
-22 -106 3 -141 8 -200 30 -221 79 -365 264 -413 530 -19 103 -14 352 10 459
54 247 199 420 415 494 106 36 310 35 415 -3z m968 -1 c2 -5 30 -51 62 -102
80 -127 105 -168 260 -424 73 -121 149 -247 170 -280 21 -33 46 -75 56 -92 10
-18 22 -33 26 -33 4 0 8 212 8 470 0 411 2 470 15 470 8 1 74 1 145 1 72 0
137 0 145 -1 13 0 15 -90 15 -750 l0 -750 -164 0 c-139 0 -165 2 -170 16 -5
13 -68 118 -210 349 -17 28 -36 59 -43 70 -7 11 -56 92 -109 180 -54 88 -120
197 -147 243 -27 45 -53 82 -58 82 -5 0 -9 -209 -9 -470 l0 -470 -160 0 -160
0 0 749 c0 689 1 750 17 753 36 7 308 -3 311 -11z m2452 -109 c23 -64 48 -130
55 -147 7 -16 23 -57 34 -90 12 -33 26 -69 30 -80 5 -11 44 -114 87 -230 42
-115 82 -223 89 -240 8 -16 23 -57 35 -90 21 -59 45 -125 134 -363 25 -68 46
-127 46 -133 0 -5 -70 -9 -167 -9 l-168 0 -33 98 c-18 53 -42 122 -53 152
l-20 55 -237 -2 c-130 -2 -249 -3 -263 -3 -25 0 -29 -7 -76 -147 l-50 -148
-172 -3 c-163 -2 -173 -1 -166 15 4 10 31 83 60 163 29 80 127 343 218 585 90
242 189 506 218 587 30 83 60 148 68 150 7 2 75 2 151 0 l137 -3 43 -117z
m978 -630 l2 -752 -160 0 -160 0 0 749 0 750 28 3 c15 2 86 3 157 2 l130 -1 3
-751z m1035 732 c174 -39 287 -135 337 -285 30 -87 25 -267 -9 -344 -34 -76
-93 -146 -160 -190 -34 -21 -61 -43 -61 -48 0 -9 186 -368 276 -534 19 -33 34
-66 34 -72 0 -8 -50 -11 -172 -9 l-173 3 -138 268 -138 267 -120 0 -119 0 2
-27 c1 -16 1 -137 0 -270 l-2 -243 -160 0 -160 0 0 750 0 750 346 0 c282 0
358 -3 417 -16z m1275 -1694 c-8 -32 -28 -61 -68 -102 -88 -87 -91 -88 -547
-88 -237 0 -383 4 -383 10 0 5 156 10 408 12 398 3 408 3 448 25 23 12 58 41
78 65 66 77 66 69 68 797 l3 656 3 -665 c2 -500 0 -676 -10 -710z m-8738 1340
c0 -7 -830 -10 -2469 -10 l-2469 0 -96 -25 c-258 -67 -466 -246 -565 -487 -65
-160 -61 19 -61 -2594 0 -1576 -3 -2374 -10 -2374 -14 0 -14 4636 1 4750 37
296 218 543 491 669 77 36 185 66 268 74 90 9 4910 6 4910 -3z m13465 0 c4 -7
-668 -10 -2009 -10 -1337 0 -2016 3 -2016 10 0 7 676 10 2009 10 1329 0 2012
-3 2016 -10z m-13425 -340 c24 -24 25 -49 6 -76 -14 -19 -53 -19 -2438 -24
l-2423 -5 -60 -24 c-174 -69 -299 -212 -334 -379 -8 -38 -11 -789 -11 -2635 0
-2321 -2 -2585 -16 -2605 -18 -26 -65 -30 -88 -6 -15 14 -16 260 -14 2652 l3
2637 33 79 c86 208 258 354 467 396 22 4 1123 8 2448 9 2394 1 2407 1 2427
-19z m13816 -11 c156 -58 288 -173 357 -311 57 -114 67 -168 67 -370 0 -167
-1 -179 -20 -190 -25 -16 -26 -28 -2 -28 34 0 268 -61 387 -101 301 -102 578
-246 818 -428 141 -106 170 -136 161 -163 -14 -47 -51 -50 -102 -8 -210 172
-459 324 -692 422 -542 229 -1115 285 -1670 161 -63 -14 -133 -31 -155 -38
-22 -7 -67 -21 -100 -31 -252 -75 -613 -271 -845 -457 -501 -404 -809 -892
-1079 -1713 -70 -212 -84 -231 -132 -183 -24 24 -24 28 35 211 116 357 272
716 420 966 134 225 263 390 451 577 462 462 1038 741 1680 817 194 22 648 11
750 -19 18 -5 18 -5 2 11 -24 24 -26 40 -30 226 -3 141 -7 173 -25 221 -57
145 -169 255 -318 311 l-59 23 -2356 5 c-1977 4 -2359 7 -2372 19 -25 20 -21
67 5 86 21 14 253 15 2388 13 l2365 -3 71 -26z m-13864 -866 c11 -10 18 -30
18 -52 0 -59 28 -160 63 -225 78 -150 271 -275 422 -276 49 0 85 -23 85 -54 0
-35 -20 -46 -84 -46 -178 0 -376 117 -485 284 -51 77 -79 154 -93 256 -10 69
-10 81 5 104 20 30 43 33 69 9z m9093 -3 c37 -41 -5 -238 -78 -358 -98 -163
-318 -292 -498 -292 -62 0 -83 14 -77 52 4 29 41 48 94 48 104 0 247 72 336
167 77 83 138 228 138 327 0 67 47 98 85 56z m4897 -345 c328 -35 615 -118
895 -261 264 -135 459 -277 663 -483 393 -395 634 -874 722 -1436 18 -114 22
-183 22 -370 0 -246 -11 -353 -61 -574 -37 -167 -156 -501 -195 -548 -18 -22
-67 -16 -79 10 -8 18 -3 38 26 107 63 144 102 260 139 411 48 193 65 312 72
509 23 581 -168 1158 -533 1617 -210 264 -458 472 -760 637 -542 295 -1182
372 -1788 216 -662 -171 -1234 -623 -1559 -1231 -56 -105 -77 -126 -112 -112
-34 13 -28 55 19 148 111 217 245 401 437 599 208 215 407 361 675 496 447
225 935 316 1417 265z m2299 -1170 c283 -536 390 -1178 295 -1776 -88 -550
-276 -967 -706 -1562 -56 -77 -88 -99 -119 -80 -32 20 -24 56 27 123 481 636
708 1219 729 1870 16 507 -104 1008 -341 1430 -51 91 -54 118 -16 137 39 19
55 1 131 -142z m-4201 -453 c80 -28 211 -93 216 -107 5 -11 -32 -93 -173 -385
-39 -80 -119 -246 -178 -370 -59 -124 -153 -317 -207 -430 -55 -113 -118 -243
-140 -290 -22 -47 -71 -149 -109 -228 l-69 -142 -38 19 c-20 10 -55 26 -77 37
-251 114 -391 343 -372 609 3 44 11 96 18 115 19 55 100 244 110 255 19 20 6
36 -53 66 -35 17 -66 37 -70 43 -16 24 -5 56 70 206 60 121 82 156 98 158 12
2 50 -9 85 -23 75 -32 64 -40 141 113 106 209 240 324 430 367 85 20 245 13
318 -13z m534 -243 c80 -39 146 -74 146 -79 0 -5 -31 -74 -70 -154 -38 -80
-102 -212 -141 -293 -102 -215 -142 -293 -146 -290 -4 5 73 170 266 570 39 81
71 153 71 160 0 10 -227 126 -265 135 -7 2 -20 -14 -30 -35 -10 -21 -43 -90
-73 -153 -30 -63 -71 -151 -92 -195 -21 -44 -75 -156 -120 -250 -106 -219
-200 -414 -260 -540 -26 -55 -84 -174 -127 -265 -44 -91 -83 -175 -87 -188 -4
-12 -12 -22 -17 -22 -5 0 -8 -4 -7 -9 2 -4 -17 -49 -41 -99 -25 -50 -43 -93
-40 -96 9 -8 260 -126 270 -126 8 0 63 109 187 370 22 47 85 178 141 293 56
114 101 212 101 217 0 6 5 10 12 10 6 0 9 3 5 6 -5 6 90 204 98 204 9 0 -6
-32 -219 -474 -47 -98 -86 -179 -86 -181 0 -5 -221 -459 -226 -464 -5 -5 -294
130 -300 141 -4 7 17 53 211 453 43 88 92 192 110 230 36 78 114 240 212 445
111 230 187 388 276 573 47 97 88 177 90 177 3 0 71 -32 151 -71z m543 -530
c-139 -298 -168 -362 -197 -424 -161 -345 -323 -693 -350 -752 -19 -40 -37
-73 -42 -73 -12 0 -13 -2 46 121 30 63 141 301 246 529 106 228 215 462 242
520 28 58 57 121 65 140 9 19 18 30 20 24 2 -6 -12 -44 -30 -85z m-360 -121
c-4 -11 -150 -326 -235 -508 -14 -30 -42 -93 -64 -139 -21 -46 -41 -81 -45
-78 -7 8 329 737 341 737 4 0 6 -6 3 -12z m-17302 -209 c124 -35 182 -174 119
-289 -31 -58 -64 -83 -127 -99 -89 -22 -180 21 -222 103 -32 64 -32 118 0 182
44 88 136 129 230 103z m18095 -33 c0 -4 -124 -271 -201 -435 -23 -47 -49
-104 -59 -126 -25 -56 -151 -327 -218 -468 -31 -66 -58 -115 -60 -109 -3 9 11
42 96 222 47 101 301 648 375 807 29 62 55 113 60 113 4 0 7 -2 7 -4z m1351
-223 c76 -37 139 -73 139 -80 0 -7 -19 -53 -41 -101 -152 -319 -141 -296 -356
-742 -42 -85 -96 -198 -120 -250 -25 -52 -69 -144 -98 -205 -29 -60 -101 -208
-158 -328 -58 -120 -111 -224 -117 -232 -9 -11 -23 -8 -78 19 -37 18 -102 50
-144 70 -46 23 -78 44 -78 53 0 8 15 45 34 82 19 36 54 109 79 161 25 52 85
178 135 280 49 102 103 214 120 250 16 36 68 144 115 240 82 171 121 252 237
495 141 296 171 355 181 355 6 0 73 -30 150 -67z m-1876 -259 c-96 -206 -125
-262 -125 -241 0 3 14 37 31 74 17 38 41 91 54 118 72 158 136 287 141 282 3
-2 -43 -108 -101 -233z m985 169 c-15 -32 -72 -152 -125 -268 -53 -115 -113
-244 -132 -285 -46 -96 -175 -375 -215 -462 -17 -38 -35 -68 -39 -68 -5 0 2
24 15 53 68 150 210 456 260 559 31 65 56 119 56 121 0 3 31 69 68 148 38 79
81 172 97 206 15 35 31 60 35 58 4 -3 -5 -31 -20 -62z m1290 -110 c100 -47
140 -73 205 -134 127 -119 196 -301 181 -481 -7 -83 -36 -172 -100 -311 -20
-43 -36 -82 -36 -87 0 -4 29 -23 65 -41 44 -22 67 -40 71 -55 4 -15 -14 -64
-55 -151 -83 -174 -97 -198 -118 -201 -10 -1 -48 10 -83 27 -36 16 -68 27 -71
25 -4 -2 -35 -60 -69 -128 -96 -195 -204 -298 -372 -358 -164 -58 -309 -46
-499 44 -98 46 -107 52 -99 72 4 11 49 107 100 211 51 105 110 228 132 275 22
47 68 141 101 210 33 69 145 303 250 520 104 217 210 438 234 490 47 100 61
122 72 116 3 -2 44 -21 91 -43z m-1674 -56 c-5 -22 -233 -516 -242 -526 -2 -2
-6 -2 -9 0 -2 3 41 101 96 219 55 118 112 241 126 273 28 60 39 73 29 34z
m581 -59 c-3 -7 -72 -155 -152 -328 -81 -173 -159 -340 -172 -370 -14 -30 -27
-50 -30 -44 -3 9 81 195 259 574 22 47 49 106 60 133 11 26 25 47 30 47 6 0 8
-6 5 -12z m-17273 -199 c110 -57 159 -171 125 -293 -14 -51 -91 -128 -145
-144 -117 -34 -231 13 -284 118 -28 57 -33 105 -15 165 23 82 80 138 165 166
31 10 124 3 154 -12z m-1313 -402 c39 -26 79 -97 79 -143 0 -80 -82 -163 -162
-164 -165 -1 -238 199 -109 297 37 29 50 33 100 33 44 0 67 -6 92 -23z m-1371
-582 c-20 -218 -78 -513 -151 -760 -47 -157 -217 -645 -292 -835 -25 -63 -59
-155 -76 -205 -17 -49 -35 -99 -40 -110 -5 -11 -14 -33 -19 -50 -6 -16 -13
-39 -18 -50 -103 -279 -216 -679 -258 -915 -87 -494 -57 -980 80 -1280 54
-120 97 -184 178 -268 121 -126 254 -190 412 -199 51 -3 94 -2 97 3 3 6 -19
37 -49 69 -114 127 -174 261 -174 393 0 92 28 161 88 213 62 55 116 73 212 73
72 0 93 -4 142 -27 139 -68 212 -235 174 -400 -35 -150 -109 -236 -264 -303
l-74 -32 55 -40 c74 -55 189 -115 267 -139 131 -42 174 -48 315 -47 120 0 154
4 239 27 185 51 314 124 455 261 40 39 68 62 63 50 -17 -33 -136 -140 -211
-189 -85 -56 -175 -97 -288 -132 -80 -24 -103 -27 -258 -27 -189 -1 -245 9
-387 70 -78 33 -226 122 -248 149 -10 12 -37 15 -117 15 -118 0 -181 15 -270
62 -167 88 -295 234 -376 428 -72 170 -100 303 -119 558 -39 522 91 1107 455
2042 24 63 52 138 62 165 10 28 23 64 30 80 7 17 24 64 38 105 14 41 38 109
52 150 157 444 240 816 272 1215 5 70 9 87 11 55 2 -25 -2 -103 -8 -175z
m3078 -81 c112 -56 89 -227 -34 -250 -47 -9 -78 1 -118 36 -112 99 17 282 152
214z m-1208 -103 c330 -83 579 -246 772 -504 55 -74 67 -107 50 -133 -4 -6
-223 -107 -487 -223 -264 -117 -523 -232 -575 -255 -118 -53 -132 -72 -106
-141 21 -55 48 -85 75 -85 15 0 205 81 433 183 18 9 112 50 208 92 96 43 189
83 205 91 246 110 333 144 354 142 22 -3 33 -19 74 -111 40 -87 47 -113 40
-130 -10 -22 -65 -48 -553 -262 -96 -42 -218 -96 -270 -120 -52 -23 -154 -68
-226 -100 -156 -67 -166 -79 -139 -152 36 -97 61 -103 192 -44 49 22 223 99
388 171 165 73 380 168 477 211 212 94 219 96 240 72 18 -20 98 -197 98 -217
0 -29 -10 -34 -390 -201 -41 -18 -160 -71 -265 -118 -104 -46 -266 -118 -359
-158 -194 -85 -207 -96 -185 -162 15 -46 58 -97 83 -97 9 0 55 18 103 39 798
355 1066 471 1089 471 29 0 35 -9 84 -119 52 -120 50 -132 -34 -171 -55 -25
-501 -223 -761 -337 -44 -19 -123 -54 -175 -78 -52 -24 -112 -50 -132 -58 -20
-8 -44 -26 -53 -40 -15 -23 -14 -28 5 -81 24 -62 47 -80 94 -73 17 2 105 38
196 79 91 42 239 108 330 148 91 40 266 117 389 171 123 55 234 102 246 105
17 4 29 0 41 -15 21 -24 94 -189 94 -212 0 -27 -32 -47 -176 -110 -76 -33
-197 -87 -269 -119 -71 -32 -265 -118 -430 -190 -165 -73 -306 -138 -314 -145
-41 -39 20 -175 78 -175 11 0 349 147 736 320 170 76 404 178 421 184 68 21
99 -100 99 -384 -1 -179 -3 -204 -29 -307 -30 -121 -48 -150 -90 -139 -37 9
-39 35 -12 143 14 54 30 144 35 200 12 132 -7 363 -30 363 -4 0 -63 -24 -131
-54 -68 -30 -283 -125 -478 -211 -417 -184 -425 -188 -468 -205 -79 -31 -163
13 -212 110 -47 94 -39 182 22 236 12 11 118 62 233 113 116 51 248 110 295
131 47 21 164 73 260 115 258 113 335 147 339 151 4 4 -19 65 -29 77 -4 4 -76
-23 -161 -61 -85 -39 -212 -96 -284 -127 -71 -32 -251 -111 -399 -176 -224
-100 -276 -119 -318 -119 -59 0 -99 19 -131 62 -66 91 -79 189 -35 256 28 42
31 43 248 140 381 169 839 372 873 385 20 9 37 18 37 20 0 15 -32 77 -39 77
-5 0 -73 -29 -152 -64 -686 -307 -948 -419 -989 -423 -92 -9 -167 61 -201 188
-11 41 -10 53 5 93 22 56 46 81 106 108 119 54 243 109 320 143 47 20 119 52
160 70 209 93 462 205 523 230 37 15 67 32 67 37 0 7 -27 67 -35 76 -1 1 -53
-21 -116 -49 -442 -198 -984 -434 -1016 -444 -37 -11 -105 14 -144 53 -38 39
-79 133 -79 180 0 34 31 102 56 123 21 18 64 37 464 214 146 64 303 134 350
155 130 58 241 107 283 124 20 8 37 17 37 20 0 14 -35 76 -42 76 -5 0 -57 -22
-116 -49 -59 -27 -154 -69 -212 -94 -58 -25 -197 -86 -310 -137 -511 -228
-514 -229 -590 -190 -44 22 -67 52 -98 127 -25 60 -28 100 -8 146 29 67 28 67
751 384 44 19 123 54 175 78 52 23 123 55 158 70 34 15 62 33 62 39 0 16 -138
166 -153 166 -6 0 -209 -91 -451 -201 -243 -111 -553 -253 -691 -316 -137 -63
-293 -134 -345 -158 -492 -229 -708 -328 -722 -332 -10 -3 -18 -13 -18 -23 0
-36 22 -175 28 -182 4 -3 57 16 117 44 232 105 268 113 342 77 36 -17 48 -32
78 -91 41 -83 45 -139 15 -198 -24 -48 -40 -58 -156 -109 -100 -43 -247 -111
-252 -116 -5 -5 31 -75 39 -75 4 0 86 35 181 77 141 63 182 78 219 76 82 -2
123 -33 164 -128 30 -67 34 -129 12 -171 -30 -58 -37 -61 -339 -196 l-77 -34
19 -41 18 -41 169 75 c185 83 246 97 301 69 45 -23 70 -53 98 -115 30 -68 33
-124 10 -174 -28 -57 -34 -60 -374 -208 l-42 -18 17 -38 c10 -21 19 -40 20
-42 2 -4 46 15 190 80 186 85 212 91 274 65 71 -30 129 -128 129 -216 0 -101
-29 -128 -225 -214 -230 -101 -206 -85 -188 -128 8 -21 21 -38 28 -38 6 0 72
27 146 61 194 87 237 101 285 87 62 -16 94 -46 126 -114 47 -101 38 -174 -29
-235 -15 -14 -99 -57 -185 -94 -87 -38 -158 -73 -158 -77 0 -4 27 -41 61 -82
112 -140 246 -244 407 -317 128 -58 137 -63 137 -79 0 -8 9 -16 19 -18 18 -4
19 4 12 234 l-7 239 -39 37 c-51 50 -81 118 -87 200 -10 123 52 238 165 304
65 38 179 45 260 15 65 -25 142 -92 172 -151 59 -118 40 -254 -51 -362 l-31
-36 7 -266 c7 -250 9 -266 26 -266 12 0 19 7 19 20 0 15 7 20 29 20 53 0 240
40 324 70 264 92 454 205 615 368 89 91 106 103 128 98 29 -8 39 -26 30 -61
-10 -41 -191 -214 -301 -287 -100 -67 -276 -153 -424 -208 -77 -28 -237 -63
-342 -75 -51 -6 -57 -4 -62 14 -6 26 -27 28 -28 4 -2 -48 2 -287 7 -440 l7
-173 37 0 37 0 6 -152 c4 -83 7 -192 7 -243 l0 -92 263 -6 c586 -15 995 -79
1092 -171 l32 -31 6 -145 c15 -322 13 -331 -71 -374 -409 -206 -2001 -296
-2850 -161 -178 29 -340 84 -361 124 -10 17 -16 95 -26 340 -5 101 -3 128 10
147 32 49 215 118 420 158 230 45 745 103 745 84 0 -5 -6 -8 -13 -8 -8 0 -85
-7 -173 -15 -412 -39 -750 -106 -887 -174 -123 -62 -114 -115 29 -165 133 -47
337 -79 669 -107 225 -19 1006 -16 1267 5 238 18 228 18 208 7 -8 -5 -94 -14
-190 -20 -96 -6 -206 -13 -243 -16 -122 -9 -828 -6 -987 5 -394 26 -693 79
-797 140 -19 11 -37 20 -40 20 -3 0 -3 -84 1 -187 8 -207 9 -209 76 -243 73
-37 238 -74 470 -104 380 -50 1227 -48 1781 4 448 42 842 131 921 207 l28 27
0 186 c0 103 -3 189 -6 193 -3 3 -34 -9 -67 -28 -34 -18 -100 -45 -148 -59
-96 -29 -99 -30 -99 -16 0 6 8 10 18 10 21 0 177 51 213 70 38 19 79 62 79 81
0 70 -280 145 -660 178 -178 16 -557 33 -635 29 l-70 -3 0 -95 c0 -94 0 -95
-25 -97 -17 -1 -19 0 -6 4 18 5 19 15 13 227 -4 121 -7 273 -7 336 l0 115
-242 -3 c-153 -2 -238 1 -229 6 11 8 12 62 2 343 -8 247 -14 335 -23 341 -9 5
-14 1 -16 -12 -3 -18 -6 -18 -55 -3 -191 56 -414 206 -554 375 -111 133 -136
173 -129 203 7 26 31 40 216 120 171 74 208 95 214 120 8 33 -41 136 -70 146
-15 5 -51 -6 -120 -35 -54 -24 -147 -64 -206 -90 -108 -46 -133 -52 -155 -38
-16 10 -93 191 -93 218 0 31 14 39 220 129 217 95 220 97 220 138 -1 46 -35
115 -64 128 -23 11 -46 3 -202 -66 -261 -114 -260 -114 -282 -90 -25 27 -94
184 -94 213 0 13 3 27 8 32 5 5 97 48 204 95 107 48 203 94 213 103 22 20 22
64 -2 111 -44 86 -31 88 -370 -63 -106 -47 -151 -56 -168 -33 -5 6 -28 56 -52
109 -49 115 -47 127 32 163 29 13 115 51 192 85 176 77 185 83 185 120 0 43
-37 115 -65 128 -28 13 -36 11 -165 -48 -228 -102 -274 -121 -298 -118 -23 3
-33 17 -75 112 -38 87 -47 114 -39 130 7 14 62 44 168 90 261 115 264 116 270
143 14 53 -41 153 -83 153 -10 0 -107 -39 -215 -86 -224 -99 -238 -100 -257
-32 -27 103 -32 141 -37 278 -14 345 95 662 314 920 140 164 279 265 519 375
184 84 285 117 463 149 14 2 108 3 210 1 148 -2 202 -7 270 -24z m19504 -344
c74 -151 74 -301 0 -437 -28 -52 -119 -143 -161 -163 -24 -11 -29 -36 -14 -66
21 -38 30 -194 16 -281 -13 -87 -55 -227 -82 -268 -26 -41 -24 -17 3 44 71
158 90 307 59 456 -19 87 -25 96 -61 79 -15 -6 -29 -9 -32 -6 -3 3 9 10 26 16
18 6 32 16 32 22 0 22 -75 111 -124 148 -58 44 -121 64 -196 63 -185 -3 -200
-171 -22 -237 59 -21 177 -29 240 -15 18 4 32 3 32 -2 0 -14 -84 -23 -166 -18
-136 9 -244 83 -244 167 0 46 13 65 64 95 122 71 321 -9 414 -166 21 -36 34
-35 85 5 119 93 168 194 168 347 0 132 -45 241 -136 330 -25 24 -45 49 -45 55
1 21 119 -115 144 -168z m-1405 -254 l21 -18 -2 -2670 -3 -2670 -23 -59 c-71
-189 -212 -327 -399 -393 l-78 -28 -3294 -3 c-2945 -2 -3297 -1 -3318 13 -24
16 -31 57 -13 85 8 13 390 16 3302 20 3135 5 3296 6 3346 23 152 52 274 167
334 315 l23 57 5 2650 c3 1458 9 2658 13 2667 8 16 25 24 53 27 7 0 21 -7 33
-16z m1108 -1057 c-112 -168 -319 -310 -514 -350 -102 -22 -229 -31 -237 -17
-5 8 14 11 64 11 109 0 272 38 352 82 147 81 217 140 304 257 66 90 86 101 31
17z m-838 -448 l-2 -43 -6 35 c-7 33 -5 50 5 50 2 0 3 -19 3 -42z m5 -478 c3
-228 11 -849 17 -1380 6 -531 14 -1183 17 -1450 4 -267 4 -522 0 -567 -31
-368 -319 -683 -683 -749 -68 -12 -514 -14 -3084 -14 -1652 0 -3002 2 -2999 5
2 3 1347 5 2989 5 3192 1 3059 -1 3208 50 262 88 463 308 537 585 17 61 19
109 19 365 0 364 -13 1515 -25 2265 -10 571 -13 1312 -6 1304 2 -2 7 -191 10
-419z m-18434 -2461 c0 -5 -4 -7 -10 -4 -12 7 -13 -110 -3 -444 l6 -234 241 7
c193 6 239 5 229 -5 -7 -7 -13 -36 -13 -63 -1 -54 -9 -71 -50 -99 -20 -14 -48
-17 -153 -17 l-129 0 -28 31 c-23 24 -30 41 -32 82 l-3 52 -33 -3 c-20 -2 -34
1 -37 10 -7 21 -26 679 -19 689 7 13 34 11 34 -2z m7234 -846 c83 -48 178
-102 211 -120 221 -123 619 -360 622 -370 2 -6 -15 -22 -39 -36 -118 -67 -388
-223 -428 -247 -25 -15 -65 -39 -90 -53 -25 -13 -136 -77 -248 -141 -111 -64
-207 -114 -213 -111 -11 7 -13 1158 -2 1169 10 10 20 5 187 -91z m1232 88 c5
-5 29 -20 54 -34 25 -14 99 -56 165 -94 66 -38 226 -131 355 -205 129 -75 273
-158 319 -184 46 -27 86 -54 88 -60 2 -7 -65 -51 -149 -99 -84 -49 -205 -118
-268 -155 -63 -37 -131 -77 -151 -88 -19 -11 -96 -55 -170 -98 -74 -42 -165
-95 -203 -117 -51 -30 -70 -37 -76 -27 -9 14 -14 1146 -5 1161 8 11 28 12 41
0z m1460 -47 c55 -31 125 -72 157 -90 94 -56 162 -95 372 -216 110 -64 238
-138 284 -165 47 -27 86 -54 88 -60 4 -10 -21 -27 -121 -83 -21 -12 -107 -61
-190 -109 -644 -375 -695 -403 -706 -396 -11 7 -14 1157 -3 1168 11 12 17 9
119 -49z m-3104 -491 c24 -21 23 -58 -2 -83 -20 -20 -33 -20 -2220 -20 -2187
0 -2200 0 -2220 20 -24 24 -26 63 -4 84 14 14 229 16 2221 16 2039 0 2208 -1
2225 -17z m-1284 -400 c-434 -2 -1142 -2 -1575 0 -434 1 -79 2 787 2 866 0
1221 -1 788 -2z"/>
<path d="M15435 18215 c-110 -18 -232 -38 -271 -44 l-72 -12 -19 -52 c-74
-193 -239 -633 -258 -687 -13 -36 -48 -130 -78 -210 l-55 -145 268 -5 c292 -5
300 -7 300 -63 0 -17 -27 -303 -60 -635 -34 -333 -59 -606 -57 -608 3 -3 99
240 207 526 69 181 121 318 206 535 53 138 129 336 169 442 l73 192 -229 -6
c-245 -7 -259 -4 -259 42 0 13 81 188 180 390 99 202 180 369 180 371 0 6 -1
6 -225 -31z"/>
<path d="M10131 17724 c-12 -15 -42 -50 -68 -78 -189 -206 -273 -301 -273
-308 0 -6 29 -17 285 -107 390 -136 639 -221 641 -218 1 1 -31 47 -72 102 -41
55 -83 111 -92 124 -9 13 -27 35 -38 50 -12 14 -48 63 -80 108 -111 153 -266
353 -274 353 -5 0 -18 -12 -29 -26z"/>
<path d="M10509 16626 c-2 -2 -106 -16 -231 -32 -126 -15 -228 -31 -228 -35 0
-3 16 -40 35 -82 l35 -75 217 110 c120 61 220 113 222 115 2 1 -7 3 -21 3 -13
0 -27 -2 -29 -4z"/>
<path d="M12420 16284 c-85 -15 -219 -68 -262 -103 -127 -104 -202 -225 -245
-398 -24 -96 -24 -409 0 -505 62 -248 199 -406 418 -479 94 -32 276 -33 376
-1 166 52 299 170 369 329 38 84 62 202 69 331 24 420 -137 712 -444 808 -46
15 -234 27 -281 18z m243 -267 c87 -51 138 -126 168 -247 22 -86 18 -416 -5
-500 -28 -103 -93 -192 -170 -233 -60 -32 -213 -32 -272 0 -97 52 -161 160
-185 313 -13 89 -7 375 11 435 30 106 80 179 153 224 57 35 85 41 174 37 66
-3 91 -9 126 -29z"/>
<path d="M12437 16026 c-86 -25 -134 -68 -179 -163 -42 -89 -61 -218 -55 -373
7 -150 19 -214 58 -297 34 -72 102 -137 163 -155 56 -17 163 -14 207 5 50 21
116 82 140 130 86 168 88 544 4 707 -62 120 -208 183 -338 146z"/>
<path d="M13386 16228 c-7 -55 -7 -1316 1 -1385 l5 -53 144 0 144 0 0 491 c0
318 3 488 10 484 5 -3 35 -47 66 -98 74 -122 153 -252 257 -422 48 -77 107
-174 131 -215 25 -41 67 -111 95 -155 l49 -80 146 -3 c80 -1 146 1 146 5 0 17
0 1429 0 1451 0 22 -1 22 -145 22 l-145 0 -2 -496 -3 -497 -38 64 c-21 35 -56
93 -79 129 -22 36 -89 146 -149 245 -60 99 -160 263 -222 365 l-112 185 -146
3 -147 3 -6 -43z"/>
<path d="M15811 16248 c-42 -115 -279 -750 -301 -808 -16 -41 -61 -163 -100
-270 -40 -107 -85 -229 -101 -270 -46 -117 -53 -110 120 -110 l149 0 52 155
52 155 276 -2 276 -3 51 -150 50 -150 154 -3 153 -3 -5 23 c-4 13 -127 346
-274 740 l-268 717 -138 1 c-134 0 -138 -1 -146 -22z m247 -625 c51 -153 92
-281 92 -285 0 -9 -374 -11 -382 -2 -4 3 34 125 83 271 49 146 89 272 89 279
0 8 6 14 13 14 8 0 48 -107 105 -277z"/>
<path d="M15867 15606 l-85 -256 175 0 c136 0 174 3 171 13 -3 6 -40 118 -83
247 -43 129 -81 239 -85 243 -4 5 -46 -107 -93 -247z"/>
<path d="M16826 16261 c-7 -11 -6 -1439 1 -1458 4 -10 39 -13 149 -13 l144 0
0 740 0 740 -144 0 c-80 0 -147 -4 -150 -9z"/>
<path d="M17420 15531 l0 -741 145 0 145 0 0 275 0 275 128 0 128 0 81 -157
c44 -87 107 -210 140 -273 l58 -115 158 -3 c100 -2 157 1 157 8 0 5 -14 36
-32 67 -17 32 -68 128 -113 213 -45 85 -103 194 -128 241 -51 94 -51 92 12
124 104 53 183 172 203 307 30 199 -54 374 -217 453 -111 55 -134 58 -512 62
l-353 5 0 -741z m668 484 c64 -26 108 -83 122 -160 23 -121 -23 -217 -125
-261 -31 -14 -78 -19 -207 -22 l-168 -4 0 229 c0 126 3 233 8 237 4 5 79 6
167 4 123 -4 170 -9 203 -23z"/>
<path d="M17726 16011 c-9 -14 -6 -395 4 -410 5 -9 50 -12 166 -9 184 3 218
15 269 87 28 39 30 50 30 126 0 76 -2 87 -30 126 -52 73 -85 83 -271 87 -106
3 -164 0 -168 -7z"/>
<path d="M22525 12734 c-127 -20 -254 -84 -343 -173 -53 -54 -74 -86 -129
-198 -35 -74 -62 -140 -60 -147 3 -7 84 -52 180 -99 96 -47 179 -93 185 -103
12 -24 13 -21 -73 -201 -52 -106 -79 -153 -94 -158 -14 -4 -57 11 -138 51
-169 81 -241 114 -252 114 -8 0 -80 -138 -122 -238 -10 -23 -24 -80 -30 -125
-11 -70 -10 -96 4 -172 36 -195 147 -340 334 -434 57 -28 109 -51 118 -51 9 0
37 46 74 123 32 67 134 280 226 472 239 500 256 535 428 892 153 318 155 322
133 336 -33 22 -177 84 -221 96 -47 13 -177 21 -220 15z"/>
<path d="M21796 12064 c-26 -53 -46 -97 -44 -98 2 -2 21 -11 43 -21 22 -10
107 -51 189 -92 82 -40 155 -73 161 -73 10 0 95 160 95 180 0 8 -258 139 -366
186 l-32 13 -46 -95z"/>
<path d="M6065 11596 c-75 -34 -121 -121 -106 -203 9 -48 22 -71 58 -105 105
-100 285 -37 308 108 12 79 -30 160 -104 198 -37 19 -115 20 -156 2z"/>
<path d="M25400 11232 c-46 -97 -130 -271 -186 -387 -144 -297 -209 -433 -274
-570 -31 -66 -80 -167 -108 -225 -27 -58 -73 -154 -102 -215 -29 -60 -67 -141
-86 -178 -19 -37 -34 -76 -34 -85 0 -12 37 -35 127 -77 69 -33 130 -62 135
-63 7 -3 123 227 251 498 38 82 130 272 239 500 39 80 92 190 118 245 26 55
87 181 135 280 146 301 155 322 142 333 -20 16 -246 122 -260 122 -6 0 -50
-80 -97 -178z"/>
<path d="M25901 11108 c-36 -77 -71 -149 -228 -478 -33 -69 -78 -163 -101
-210 -51 -109 -165 -346 -277 -575 -48 -99 -107 -223 -132 -275 -24 -52 -55
-116 -69 -142 -13 -26 -24 -50 -24 -53 0 -11 189 -95 248 -111 120 -32 298
-12 415 47 45 23 134 94 179 144 32 35 158 284 158 312 0 5 -83 48 -185 97
-142 69 -187 95 -191 111 -4 15 20 76 72 184 60 126 82 163 100 167 16 4 78
-20 204 -80 100 -47 185 -84 190 -81 15 9 121 237 135 292 19 74 19 213 0 288
-46 174 -156 303 -335 393 -58 28 -108 52 -113 52 -4 0 -25 -37 -46 -82z"/>
<path d="M25858 10113 l-45 -98 41 -20 c22 -11 113 -55 201 -97 l160 -78 47
97 47 98 -67 32 c-37 18 -127 62 -201 98 -73 36 -134 65 -136 65 -1 0 -22 -44
-47 -97z"/>
<path d="M7513 10771 c-46 -21 -79 -66 -89 -118 -8 -40 28 -118 67 -146 62
-44 157 -28 208 35 36 45 40 122 9 167 -51 75 -120 97 -195 62z"/>
<path d="M6235 10386 c-31 -13 -55 -51 -55 -87 0 -32 53 -79 90 -79 37 0 90
47 90 80 0 37 -28 77 -61 89 -18 6 -32 11 -33 11 -1 -1 -15 -7 -31 -14z"/>
<path d="M4910 5926 c-73 -16 -109 -36 -153 -85 -74 -82 -85 -219 -29 -358 33
-82 73 -141 149 -223 64 -70 68 -70 183 -18 181 81 270 280 214 479 -42 149
-205 241 -364 205z"/>
<path d="M7964 9776 c-47 -21 -74 -62 -74 -112 0 -119 158 -164 220 -62 24 39
25 66 6 113 -25 59 -94 87 -152 61z"/>
<path d="M6405 9606 c-49 -7 -103 -17 -120 -21 -157 -37 -439 -162 -573 -254
-257 -176 -444 -458 -506 -763 -17 -86 -31 -198 -24 -198 6 0 75 30 183 80 39
18 113 51 165 75 52 24 154 70 225 103 72 32 378 173 680 311 867 398 884 406
885 413 0 9 -143 99 -215 135 -207 104 -483 151 -700 119z"/>
<path d="M6905 6388 c-70 -19 -153 -95 -189 -172 -28 -62 -27 -177 2 -241 27
-59 80 -117 139 -152 40 -23 51 -25 140 -21 112 4 155 20 216 81 60 60 82 117
82 212 0 60 -6 91 -21 125 -28 59 -89 121 -148 149 -57 26 -162 36 -221 19z"/>
<path d="M7115 5800 c-62 -23 -156 -25 -221 -5 -77 23 -76 23 -70 -47 3 -35 8
-164 11 -288 10 -473 17 -736 20 -770 l3 -35 173 3 c96 1 177 6 181 10 4 4 3
113 -2 242 -5 129 -12 387 -15 573 -5 241 -11 337 -19 336 -6 0 -33 -9 -61
-19z"/>
<path d="M7045 3953 c-110 -3 -161 -7 -167 -16 -15 -25 2 -101 28 -124 21 -19
37 -23 98 -23 40 0 101 3 136 7 56 5 64 9 81 37 23 37 22 121 -2 121 -8 1 -86
-1 -174 -2z"/>
<path d="M13870 3300 c0 -302 3 -550 6 -550 4 0 49 25 100 55 52 30 136 79
187 108 50 30 126 73 167 98 41 24 79 46 85 48 9 3 222 128 358 209 l59 35
-69 40 c-37 22 -174 100 -303 175 -277 159 -449 259 -470 272 -25 16 -109 60
-115 60 -3 0 -5 -247 -5 -550z"/>
<path d="M15250 3301 c0 -303 2 -551 4 -551 6 0 172 95 551 315 160 92 314
181 342 197 29 16 55 33 57 37 3 4 -28 25 -67 47 -65 36 -334 192 -717 415
-74 43 -143 81 -152 85 -17 6 -18 -24 -18 -545z"/>
<path d="M16630 3300 c0 -302 2 -550 4 -550 2 0 107 59 233 132 125 72 275
158 333 191 178 101 392 229 388 232 -2 1 -106 62 -233 135 -126 73 -304 176
-395 228 -285 165 -315 182 -322 182 -5 0 -8 -247 -8 -550z"/>
</g>
</svg>
