<svg width="80" height="81" viewBox="0 0 80 81" fill="none" xmlns="http://www.w3.org/2000/svg">
<path d="M58.1784 44.324C61.1773 44.324 63.8163 42.6719 65.1758 40.1737L79.4905 14.0225C80.9699 11.3631 79.0506 8.05891 76.0118 8.05891H16.8337L13.0751 0H0V8.05891H7.99703L22.3917 38.6425L16.9937 48.4744C14.0748 53.8738 17.9133 60.4418 23.9911 60.4418H71.9733V52.3829H23.9911L28.3895 44.324H58.1784ZM20.6323 16.1178H69.2143L58.1784 36.2651H30.1088L20.6323 16.1178ZM23.9911 64.4713C19.5927 64.4713 16.034 68.0978 16.034 72.5302C16.034 76.9626 19.5927 80.5891 23.9911 80.5891C28.3895 80.5891 31.9881 76.9626 31.9881 72.5302C31.9881 68.0978 28.3895 64.4713 23.9911 64.4713ZM63.9762 64.4713C59.5779 64.4713 56.0192 68.0978 56.0192 72.5302C56.0192 76.9626 59.5779 80.5891 63.9762 80.5891C68.3746 80.5891 71.9733 76.9626 71.9733 72.5302C71.9733 68.0978 68.3746 64.4713 63.9762 64.4713Z" fill="white"/>
</svg>
